<?xml version="1.0" encoding="utf-8"?>
<!-- Generator: Adobe Illustrator 21.0.0, SVG Export Plug-In . SVG Version: 6.00 Build 0)  -->
<svg version="1.1" id="Layer_1" xmlns="http://www.w3.org/2000/svg" xmlns:xlink="http://www.w3.org/1999/xlink" x="0px" y="0px"
	 viewBox="0 0 288 560" style="enable-background:new 0 0 288 560;" xml:space="preserve">
<style type="text/css">
	.st0{fill:#4299FF;stroke:#505050;stroke-width:3;stroke-linecap:round;stroke-linejoin:round;}
</style>
<path class="st0" d="M119.4,286.9c1.6-1.7,3.9-2.7,6.2-2.7H172c4.8,0,8.6,3.9,8.6,8.6V325c0,4.8-3.9,8.6-8.6,8.6h-44.4"/>
<path class="st0" d="M160.8,284.2v-10.8c0.5-6.6-4.4-12.4-11-12.9c-6.6-0.5-12.4,4.4-12.9,11c-0.1,0.7-0.1,1.3,0,2v10.8"/>
<path class="st0" d="M128.9,284.2v-10.3c0-10.4,7.7-19.3,18.1-20.2c11.8-1,21.7,8.2,21.7,19.8v10.8"/>
<path class="st0" d="M148.3,320.5c-1.7,0-3-1.3-3-3v-6.9c0-0.2-0.1-0.4-0.3-0.6c-2.9-1.9-3.9-5.5-2.5-8.7c0.9-2,2.7-3.4,4.8-3.9
	c5.3-1.2,10.6,4.1,7.5,10.7c-0.4,0.9-1.2,1.4-2.1,1.8c-0.2,0.1-0.4,0.3-0.4,0.6v7c0,1.7-1.3,3-3,3L148.3,320.5z"/>
<path class="st0" d="M117,292.7c0,0-8.8,6.8-16.1,6.8v17.3c-0.1,3.3,1.3,6.5,3.9,8.6c2.6,1.9,10.2,7,10.6,7.2l1.6,1.1l1.6-1.1
	c0.3-0.2,8-5.3,10.6-7.2c2.6-2.1,4-5.3,3.9-8.6v-17.3C125.8,299.5,117,292.7,117,292.7z"/>
<polyline class="st0" points="110.4,312.2 115.8,317.5 124.5,308.8 "/>
</svg>
