<?xml version="1.0" encoding="utf-8"?>
<!-- Generator: Adobe Illustrator 21.0.0, SVG Export Plug-In . SVG Version: 6.00 Build 0)  -->
<svg version="1.1" id="Layer_1" xmlns="http://www.w3.org/2000/svg" xmlns:xlink="http://www.w3.org/1999/xlink" x="0px" y="0px"
	 viewBox="0 0 288 560" style="enable-background:new 0 0 288 560;" xml:space="preserve">
<style type="text/css">
	.st0{fill:#4299FF;stroke:#505050;stroke-width:3;stroke-linecap:round;stroke-linejoin:round;}
</style>
<path class="st0" d="M117.3,320.1h46.4c4.8,0,8.6,3.9,8.6,8.6v32.1c0,4.8-3.9,8.6-8.6,8.6h-46.4c-4.8,0-8.6-3.9-8.6-8.6v-32.1
	C108.7,324,112.5,320.1,117.3,320.1z"/>
<path class="st0" d="M152.5,320.1v-10.8c0.5-6.6-4.4-12.4-11-12.9c-6.6-0.5-12.4,4.4-12.9,11c-0.1,0.7-0.1,1.3,0,2v10.8"/>
<path class="st0" d="M120.6,320.1v-10.8c0-11,8.9-19.9,19.9-19.9s19.9,8.9,19.9,19.9v10.8"/>
<ellipse transform="matrix(0.9746 -0.2241 0.2241 0.9746 -73.6928 40.2571)" class="st0" cx="140.5" cy="344.8" rx="17.2" ry="17.1"/>
<polyline class="st0" points="132.3,343.7 139,350.4 149.9,339.5 "/>
</svg>
