<?xml version="1.0" encoding="utf-8"?>
<!-- Generator: Adobe Illustrator 21.0.0, SVG Export Plug-In . SVG Version: 6.00 Build 0)  -->
<svg version="1.1" id="Layer_1" xmlns="http://www.w3.org/2000/svg" xmlns:xlink="http://www.w3.org/1999/xlink" x="0px" y="0px"
	 viewBox="0 0 288 560" style="enable-background:new 0 0 288 560;" xml:space="preserve">
<style type="text/css">
	.st0{fill:#4299FF;stroke:#505050;stroke-width:3;stroke-linecap:round;stroke-linejoin:round;}
	.st1{fill:#4299FF;stroke:#505050;stroke-width:3;stroke-linecap:round;stroke-linejoin:round;stroke-dasharray:0.13,9.03;}
</style>
<circle class="st0" cx="113.5" cy="343.8" r="8.3"/>
<path class="st0" d="M100.5,363.9c1.5-3.8,5.1-6.3,9.2-6.4h7.5c4.1,0,7.7,2.5,9.2,6.3"/>
<circle class="st0" cx="167.5" cy="344.6" r="8.3"/>
<path class="st0" d="M154.6,364.6c1.5-3.8,5.1-6.3,9.2-6.3h7.5c4.1,0,7.7,2.5,9.2,6.3"/>
<path class="st0" d="M150.2,306.5v-6.4c0-3.1-2.5-5.7-5.7-5.7h-31.2c-3.1,0-5.7,2.5-5.7,5.7l0,0v18.7c0,3.1,2.5,5.7,5.6,5.7
	c0,0,0,0,0,0h11.8c0.4,0,0.7,0.3,0.7,0.7l0,0v7.3c0,0.4,0.3,0.7,0.7,0.7c0.2,0,0.4-0.1,0.5-0.2l8.4-8.4c0.1-0.1,0.3-0.2,0.5-0.2h2.5
	"/>
<line class="st1" x1="119.7" y1="309.4" x2="138.3" y2="309.4"/>
<path class="st0" d="M146.3,311.2H164c1.8,0,3.2,1.4,3.2,3.2l0,0v10.6c0,1.8-1.4,3.2-3.2,3.2h0h-6.7c-0.2,0-0.4,0.2-0.4,0.4l0,0v4.2
	c0,0.2-0.2,0.4-0.4,0.4c-0.1,0-0.2,0-0.3-0.1l-4.8-4.7c-0.1-0.1-0.2-0.1-0.3-0.1h-4.9c-1.8,0-3.2-1.4-3.2-3.2l0,0v-10.6
	C143.1,312.7,144.6,311.2,146.3,311.2L146.3,311.2z"/>
<polyline class="st0" points="135.5,348.6 139.6,352.7 146.3,346 "/>
<path class="st0" d="M140.5,334.5c0,0-6.3,4.9-11.6,4.9v12.4c-0.1,2.4,1,4.7,2.8,6.2c1.8,1.4,7.4,5,7.6,5.2l1.2,0.8l1.2-0.8
	c0.2-0.1,5.8-3.8,7.6-5.2c1.9-1.5,2.9-3.8,2.8-6.2v-12.4C146.8,339.4,140.5,334.5,140.5,334.5z"/>
</svg>
