<?xml version="1.0" encoding="utf-8"?>
<!-- Generator: Adobe Illustrator 21.0.0, SVG Export Plug-In . SVG Version: 6.00 Build 0)  -->
<svg version="1.1" id="Layer_1" xmlns="http://www.w3.org/2000/svg" xmlns:xlink="http://www.w3.org/1999/xlink" x="0px" y="0px"
	 viewBox="0 0 288 560" style="enable-background:new 0 0 288 560;" xml:space="preserve">
<style type="text/css">
	.st0{fill:#4299FF;stroke:#505050;stroke-width:3;stroke-linecap:round;stroke-linejoin:round;}
</style>
<line class="st0" x1="127.7" y1="361" x2="127.7" y2="341.3"/>
<line class="st0" x1="153.3" y1="341.3" x2="153.3" y2="361"/>
<path class="st0" d="M153.3,356.7h23.8c1.9,0,3.4,1.5,3.4,3.4v8.7h-80v-15.2c0-1.9,1.5-3.4,3.4-3.4h23.8"/>
<path class="st0" d="M153.5,341.3h-26c-1.5,0-2.7-1.2-2.7-2.7l0,0l0,0c0-1.5,1.2-2.7,2.7-2.7l0,0h26c1.5,0,2.7,1.2,2.7,2.7l0,0l0,0
	C156.2,340.1,155,341.3,153.5,341.3L153.5,341.3z"/>
<line class="st0" x1="135.4" y1="349.1" x2="145.6" y2="349.1"/>
<line class="st0" x1="135.4" y1="355.3" x2="145.6" y2="355.3"/>
<line class="st0" x1="114.6" y1="319.9" x2="114.6" y2="344.8"/>
<polyline class="st0" points="119.7,325.1 114.6,319.9 109.5,325.1 "/>
<line class="st0" x1="166.8" y1="332.8" x2="166.8" y2="351.3"/>
<polyline class="st0" points="171.9,338 166.8,332.8 161.7,338 "/>
<polyline class="st0" points="133.7,309.3 139.2,314.8 148.3,305.8 "/>
<path class="st0" d="M140.5,290.2c0,0-8.6,6.6-15.7,6.6v16.8c-0.1,3.3,1.3,6.4,3.8,8.4c2.5,1.9,10,6.8,10.3,7l1.6,1l1.6-1
	c0.3-0.2,7.8-5.1,10.3-7c2.5-2.1,3.9-5.2,3.8-8.4v-16.8C149.1,296.9,140.5,290.2,140.5,290.2z"/>
</svg>
