<?xml version="1.0" encoding="utf-8"?>
<!-- Generator: Adobe Illustrator 21.0.0, SVG Export Plug-In . SVG Version: 6.00 Build 0)  -->
<svg version="1.1" id="Layer_1" xmlns="http://www.w3.org/2000/svg" xmlns:xlink="http://www.w3.org/1999/xlink" x="0px" y="0px"
	 viewBox="0 0 288 560" style="enable-background:new 0 0 288 560;" xml:space="preserve">
<style type="text/css">
	.st0{fill:#4299FF;stroke:#505050;stroke-width:3;stroke-linecap:round;stroke-linejoin:round;}
</style>
<line class="st0" x1="140.5" y1="305.3" x2="140.5" y2="302.7"/>
<circle class="st0" cx="140.5" cy="293.6" r="4.1"/>
<line class="st0" x1="140.5" y1="343.6" x2="140.5" y2="356.3"/>
<circle class="st0" cx="140.5" cy="365.4" r="4.1"/>
<line class="st0" x1="123.7" y1="329.5" x2="113.7" y2="329.5"/>
<circle class="st0" cx="104.6" cy="329.5" r="4.1"/>
<line class="st0" x1="157.3" y1="329.5" x2="167.3" y2="329.5"/>
<circle class="st0" cx="176.4" cy="329.5" r="4.1"/>
<line class="st0" x1="127.5" y1="316.5" x2="121.6" y2="310.6"/>
<ellipse transform="matrix(0.7071 -0.7071 0.7071 0.7071 -181.3158 170.445)" class="st0" cx="115.1" cy="304.1" rx="4.1" ry="4.1"/>
<line class="st0" x1="153.6" y1="342.6" x2="159.4" y2="348.4"/>
<ellipse transform="matrix(0.7071 -0.7071 0.7071 0.7071 -202.366 221.2652)" class="st0" cx="165.9" cy="354.9" rx="4.1" ry="4.1"/>
<line class="st0" x1="127.4" y1="342.6" x2="121.6" y2="348.4"/>
<ellipse transform="matrix(0.7071 -0.7071 0.7071 0.7071 -217.2531 185.335)" class="st0" cx="115.1" cy="354.9" rx="4.1" ry="4.1"/>
<line class="st0" x1="153.5" y1="316.5" x2="159.4" y2="310.6"/>
<ellipse transform="matrix(0.7071 -0.7071 0.7071 0.7071 -166.4287 206.3752)" class="st0" cx="165.9" cy="304.1" rx="4.1" ry="4.1"/>
<path class="st0" d="M131.3,319.8h18.3c1.9,0,3.4,1.5,3.4,3.4v12.7c0,1.9-1.5,3.4-3.4,3.4h-18.3c-1.9,0-3.4-1.5-3.4-3.4v-12.7
	C127.9,321.3,129.5,319.8,131.3,319.8z"/>
<path class="st0" d="M133.9,319.8v-3.6c0-3.7,3-6.7,6.7-6.7s6.7,3,6.7,6.7l0,0v3.6"/>
<polyline class="st0" points="135.8,328.9 139.6,332.7 145.8,326.5 "/>
</svg>
