<?xml version="1.0" encoding="utf-8"?>
<!-- Generator: Adobe Illustrator 21.0.0, SVG Export Plug-In . SVG Version: 6.00 Build 0)  -->
<svg version="1.1" id="Layer_1" xmlns="http://www.w3.org/2000/svg" xmlns:xlink="http://www.w3.org/1999/xlink" x="0px" y="0px"
	 viewBox="0 0 288 560" style="enable-background:new 0 0 288 560;" xml:space="preserve">
<style type="text/css">
	.st0{fill:#4299FF;stroke:#505050;stroke-width:3;stroke-linecap:round;stroke-linejoin:round;}
</style>
<path class="st0" d="M152.7,340.8l2-4.1c0.3-0.6,1.1-0.9,1.7-0.6c0.3,0.1,0.5,0.3,0.6,0.6l2.6,5.2c0.2,0.4,0.6,0.7,1,0.7l5.8,0.8
	c0.7,0.1,1.2,0.7,1.1,1.5c0,0.3-0.2,0.6-0.4,0.8l-4.2,4.1c-0.3,0.3-0.4,0.7-0.4,1.1l1,5.7c0.1,0.7-0.3,1.4-1,1.5
	c-0.3,0.1-0.6,0-0.8-0.1l-5.2-2.7c-0.4-0.2-0.8-0.2-1.2,0l-5.2,2.7c-0.6,0.3-1.4,0.1-1.8-0.6c-0.1-0.3-0.2-0.5-0.1-0.8l1-5.7
	c0.1-0.4-0.1-0.9-0.4-1.1l-4.2-4.1"/>
<path class="st0" d="M128.3,340.8l-2-4.1c-0.3-0.6-1.1-0.9-1.7-0.6c-0.3,0.1-0.5,0.3-0.6,0.6l-2.6,5.2c-0.2,0.4-0.6,0.7-1,0.7
	l-5.8,0.8c-0.7,0.1-1.2,0.7-1.1,1.5c0,0.3,0.2,0.6,0.4,0.8l4.2,4.1c0.3,0.3,0.4,0.7,0.4,1.1l-1,5.7c-0.1,0.7,0.4,1.4,1.1,1.5
	c0.3,0,0.6,0,0.8-0.1l5.2-2.7c0.4-0.2,0.8-0.2,1.2,0l5.2,2.7c0.6,0.3,1.4,0.1,1.7-0.5c0.1-0.3,0.2-0.6,0.1-0.8l-1-5.7
	c-0.1-0.4,0.1-0.9,0.4-1.1l4.2-4.1"/>
<path class="st0" d="M114.4,339l-1.2-2.3c-0.3-0.6-1.1-0.9-1.7-0.6c-0.3,0.1-0.5,0.3-0.6,0.6l-2.6,5.2c-0.2,0.4-0.6,0.7-1,0.7
	l-5.8,0.8c-0.7,0.1-1.2,0.7-1.1,1.5c0,0.3,0.2,0.6,0.4,0.8l4.2,4.1c0.3,0.3,0.4,0.7,0.4,1.1l-1,5.7c-0.1,0.7,0.3,1.4,1,1.5
	c0.3,0.1,0.6,0,0.8-0.1l5.2-2.7c0.4-0.2,0.8-0.2,1.2,0l0.5,0.3"/>
<path class="st0" d="M166.6,339l1.2-2.3c0.3-0.6,1.1-0.9,1.7-0.6c0.3,0.1,0.5,0.3,0.6,0.6l2.6,5.2c0.2,0.4,0.6,0.7,1,0.7l5.8,0.8
	c0.7,0.1,1.2,0.7,1.1,1.5c0,0.3-0.2,0.6-0.4,0.8l-4.2,4.1c-0.3,0.3-0.4,0.7-0.4,1.1l1,5.7c0.1,0.7-0.3,1.4-1,1.5
	c-0.3,0.1-0.6,0-0.8-0.1l-5.2-2.7c-0.4-0.2-0.8-0.2-1.2,0l-0.5,0.3"/>
<circle class="st0" cx="158.8" cy="306.7" r="5.8"/>
<polyline class="st0" points="163.4,334.5 163.4,331 163.4,329.4 163.4,329.4 163.4,322 "/>
<path class="st0" d="M152.2,317.6c1.2-1,2.6-1.6,4.1-1.5h4.8c3.5,0,6.3,2.8,6.3,6.3v6.8c0.1,1.1-0.7,2.1-1.8,2.2c0,0-0.1,0-0.1,0
	c-1.2,0-2.1-1-2.1-2.2"/>
<circle class="st0" cx="122.2" cy="306.7" r="5.8"/>
<path class="st0" d="M117.6,322v7.4l0,0v5.1"/>
<path class="st0" d="M117.5,329.2c0,1.2-0.9,2.2-2.1,2.2c-1.1,0-2-0.9-2-2c0,0,0-0.1,0-0.1v-6.8c0-3.5,2.8-6.3,6.3-6.3h4.8
	c1.5,0,3,0.5,4.1,1.5"/>
<polyline class="st0" points="136.3,329.8 139.7,333.2 145.2,327.6 "/>
<path class="st0" d="M140.5,318.2c0,0-5.2,4-9.6,4v10.3c-0.1,2,0.8,3.9,2.3,5.1c1.5,1.1,6.1,4.1,6.3,4.3l1,0.6l1-0.6
	c0.2-0.1,4.8-3.1,6.3-4.3c1.5-1.2,2.4-3.1,2.3-5.1v-10.3C145.7,322.2,140.5,318.2,140.5,318.2z"/>
</svg>
