<?xml version="1.0" encoding="utf-8"?>
<!-- Generator: Adobe Illustrator 21.0.0, SVG Export Plug-In . SVG Version: 6.00 Build 0)  -->
<svg version="1.1" id="Layer_1" xmlns="http://www.w3.org/2000/svg" xmlns:xlink="http://www.w3.org/1999/xlink" x="0px" y="0px"
	 viewBox="0 0 288 560" style="enable-background:new 0 0 288 560;" xml:space="preserve">
<style type="text/css">
	.st0{fill:#4299FF;stroke:#505050;stroke-width:3;stroke-linecap:round;stroke-linejoin:round;}
</style>
<polyline class="st0" points="159.8,369.5 159.8,325.9 166.1,325.9 166.1,369.5 "/>
<polyline class="st0" points="147.5,369.5 147.5,337.9 153.8,337.9 153.8,369.5 "/>
<polyline class="st0" points="178.4,369.5 178.4,314.6 172.1,314.6 172.1,369.5 "/>
<polyline class="st0" points="147.2,328.6 173,302.8 178.3,308.1 178.4,289.5 159.8,289.6 165.1,294.9 137.8,322.3 "/>
<polyline class="st0" points="113.6,343.6 120.4,350.5 131.6,339.3 "/>
<path class="st0" d="M122,320.1c0,0-10.6,8.2-19.5,8.2v20.9c-0.1,4,1.6,7.9,4.7,10.4c3.1,2.3,12.4,8.4,12.8,8.7l1.9,1.3l1.9-1.3
	c0.4-0.3,9.7-6.4,12.8-8.7c3.2-2.5,4.9-6.4,4.8-10.4v-20.8C132.6,328.3,122,320.1,122,320.1z"/>
</svg>
