<?xml version="1.0" encoding="utf-8"?>
<!-- Generator: Adobe Illustrator 21.0.0, SVG Export Plug-In . SVG Version: 6.00 Build 0)  -->
<svg version="1.1" id="Layer_1" xmlns="http://www.w3.org/2000/svg" xmlns:xlink="http://www.w3.org/1999/xlink" x="0px" y="0px"
	 viewBox="0 0 288 560" style="enable-background:new 0 0 288 560;" xml:space="preserve">
<style type="text/css">
	.st0{fill:#4299FF;stroke:#505050;stroke-width:3;stroke-linecap:round;stroke-linejoin:round;}
</style>
<path class="st0" d="M101.1,350.8h78.9c0.3,0,0.5,0.2,0.6,0.5v1.7c0,1.6-1.3,2.9-2.9,2.9l0,0h-74.2c-1.6,0-2.9-1.3-2.9-2.9v-1.7
	C100.5,351.1,100.7,350.8,101.1,350.8C101,350.8,101,350.8,101.1,350.8z"/>
<line class="st0" x1="139.3" y1="307" x2="141.7" y2="307"/>
<line class="st0" x1="108.2" y1="310.9" x2="172.8" y2="310.9"/>
<path class="st0" d="M100.9,350.8l7.3-8.1v-33.8c0-3.2,2.6-5.9,5.9-5.9H167c3.2,0,5.9,2.6,5.9,5.9v33.8l7.3,8.1"/>
<line class="st0" x1="108.2" y1="342.8" x2="172.8" y2="342.8"/>
<line class="st0" x1="139.3" y1="347" x2="140.9" y2="347"/>
<line class="st0" x1="144.9" y1="347" x2="146.6" y2="347"/>
<line class="st0" x1="128" y1="347" x2="129.6" y2="347"/>
<line class="st0" x1="133.6" y1="347" x2="135.3" y2="347"/>
<line class="st0" x1="122.3" y1="347" x2="123.9" y2="347"/>
<line class="st0" x1="111" y1="347" x2="112.6" y2="347"/>
<line class="st0" x1="116.7" y1="347" x2="118.3" y2="347"/>
<line class="st0" x1="162.7" y1="347" x2="164.3" y2="347"/>
<line class="st0" x1="168.4" y1="347" x2="170" y2="347"/>
<line class="st0" x1="157.1" y1="347" x2="158.7" y2="347"/>
<line class="st0" x1="125.3" y1="321.9" x2="125.3" y2="331.6"/>
<line class="st0" x1="121.1" y1="324.4" x2="129.5" y2="329.2"/>
<line class="st0" x1="121.1" y1="329.2" x2="129.5" y2="324.4"/>
<line class="st0" x1="140.5" y1="321.9" x2="140.5" y2="331.6"/>
<line class="st0" x1="136.3" y1="324.4" x2="144.7" y2="329.2"/>
<line class="st0" x1="136.3" y1="329.2" x2="144.7" y2="324.4"/>
<line class="st0" x1="155.7" y1="321.9" x2="155.7" y2="331.6"/>
<line class="st0" x1="151.5" y1="324.4" x2="159.9" y2="329.2"/>
<line class="st0" x1="151.5" y1="329.2" x2="159.9" y2="324.4"/>
</svg>
