<?xml version="1.0" encoding="utf-8"?>
<!-- Generator: Adobe Illustrator 21.0.0, SVG Export Plug-In . SVG Version: 6.00 Build 0)  -->
<svg version="1.1" id="Layer_1" xmlns="http://www.w3.org/2000/svg" xmlns:xlink="http://www.w3.org/1999/xlink" x="0px" y="0px"
	 viewBox="0 0 288 560" style="enable-background:new 0 0 288 560;" xml:space="preserve">
<style type="text/css">
	.st0{fill:#4299FF;stroke:#505050;stroke-width:3;stroke-linecap:round;stroke-linejoin:round;}
</style>
<polyline class="st0" points="117,312.8 104.8,317.3 100.5,305 "/>
<path class="st0" d="M102.9,325.6c-2.1,20.8,13,39.3,33.7,41.4c17.1,1.8,33.3-8.3,39.3-24.4l0.2-0.7"/>
<path class="st0" d="M178.1,333.5c2.2-20.8-12.9-39.3-33.6-41.5c-17.2-1.8-33.4,8.3-39.4,24.4l-0.2,0.6"/>
<polyline class="st0" points="164,346.2 176.2,341.7 180.5,354 "/>
<ellipse transform="matrix(0.9746 -0.2241 0.2241 0.9746 -70.2725 39.7978)" class="st0" cx="140.2" cy="329.5" rx="20.2" ry="20.2"/>
<polyline class="st0" points="130.5,328.2 138.4,336.1 151.2,323.2 "/>
</svg>
