<?xml version="1.0" encoding="utf-8"?>
<!-- Generator: Adobe Illustrator 21.0.0, SVG Export Plug-In . SVG Version: 6.00 Build 0)  -->
<svg version="1.1" id="Layer_1" xmlns="http://www.w3.org/2000/svg" xmlns:xlink="http://www.w3.org/1999/xlink" x="0px" y="0px"
	 viewBox="0 0 288 560" style="enable-background:new 0 0 288 560;" xml:space="preserve">
<style type="text/css">
	.st0{fill:#4299FF;stroke:#505050;stroke-width:3;stroke-linecap:round;stroke-linejoin:round;}
</style>
<path class="st0" d="M140.5,305.4c23.6,0,40,24.1,40,24.1s-16.4,24.1-40,24.1s-40-24.1-40-24.1S116.9,305.4,140.5,305.4z"/>
<circle class="st0" cx="141" cy="329.5" r="17.2"/>
<polyline class="st0" points="133.7,328.7 139.6,334.6 149.3,325 "/>
<path class="st0" d="M104.1,310.3v-3.7c0-1.3,1-2.3,2.3-2.3h3.7"/>
<path class="st0" d="M110.1,354.7h-3.7c-1.3,0-2.3-1-2.3-2.3v-3.7"/>
<path class="st0" d="M176.9,348.7v3.7c0,1.3-1,2.3-2.3,2.3h-3.7"/>
<path class="st0" d="M170.9,304.3h3.7c1.3,0,2.3,1,2.3,2.3v3.7"/>
</svg>
