<?xml version="1.0" encoding="utf-8"?>
<!-- Generator: Adobe Illustrator 21.0.0, SVG Export Plug-In . SVG Version: 6.00 Build 0)  -->
<svg version="1.1" id="Layer_1" xmlns="http://www.w3.org/2000/svg" xmlns:xlink="http://www.w3.org/1999/xlink" x="0px" y="0px"
	 viewBox="0 0 288 560" style="enable-background:new 0 0 288 560;" xml:space="preserve">
<style type="text/css">
	.st0{fill:#4299FF;stroke:#505050;stroke-width:3;stroke-linecap:round;stroke-linejoin:round;}
	.st1{fill:none;stroke:#505050;stroke-width:3;stroke-linecap:round;stroke-linejoin:round;}
</style>
<ellipse transform="matrix(0.9746 -0.2241 0.2241 0.9746 -70.2626 39.8691)" class="st0" cx="140.5" cy="329.5" rx="17.1" ry="17.1"/>
<polyline class="st1" points="132.3,328.4 139,335.1 149.9,324.1 "/>
<path class="st1" d="M140.5,289.5c0,0-17.2,13.3-31.5,13.3v33.7c0,7,2.9,13.3,7.7,16.9c5,3.7,20,13.6,20.6,14l3.1,2.1l3.1-2.1
	c0.6-0.4,15.6-10.3,20.6-14c4.8-3.5,7.7-9.9,7.7-16.9v-33.8C157.7,302.8,140.5,289.5,140.5,289.5z"/>
</svg>
