<?xml version="1.0" encoding="utf-8"?>
<!-- Generator: Adobe Illustrator 21.0.0, SVG Export Plug-In . SVG Version: 6.00 Build 0)  -->
<svg version="1.1" id="Layer_1" xmlns="http://www.w3.org/2000/svg" xmlns:xlink="http://www.w3.org/1999/xlink" x="0px" y="0px"
	 viewBox="0 0 288 560" style="enable-background:new 0 0 288 560;" xml:space="preserve">
<style type="text/css">
	.st0{fill:#4299FF;stroke:#505050;stroke-width:3;stroke-linecap:round;stroke-linejoin:round;}
</style>
<path class="st0" d="M125.4,295.1v-8.2c0-5.2,4.2-9.4,9.4-9.4l0,0h30.3c5.2,0,9.4,4.1,9.4,9.3c0,0,0,0,0,0v61.3
	c0,5.2-4.2,9.3-9.4,9.3l0,0h-30.4c-5.2,0-9.4-4.2-9.4-9.3l0,0v-13.3"/>
<line class="st0" x1="125.4" y1="291.7" x2="174.5" y2="291.7"/>
<line class="st0" x1="146.7" y1="284.6" x2="153.2" y2="284.6"/>
<line class="st0" x1="125.4" y1="343.3" x2="174.5" y2="343.3"/>
<line class="st0" x1="167.6" y1="306" x2="159.6" y2="298"/>
<line class="st0" x1="168.6" y1="300" x2="166" y2="297.4"/>
<path class="st0" d="M112,300.1h37.5c3,0,5.4,2.4,5.4,5.4c0,0,0,0,0,0v18.9c0,3-2.4,5.4-5.4,5.4H141c-0.4,0-0.7,0.3-0.7,0.7v0v7.1
	c0,0.4-0.3,0.7-0.7,0.7c-0.2,0-0.4-0.1-0.5-0.2l-8-8c-0.1-0.1-0.3-0.2-0.5-0.2H112c-3,0-5.4-2.4-5.5-5.4c0,0,0,0,0-0.1v-18.9
	C106.5,302.5,108.9,300.1,112,300.1C111.9,300.1,112,300.1,112,300.1z"/>
<line class="st0" x1="116.7" y1="310.5" x2="116.7" y2="319.5"/>
<line class="st0" x1="112.8" y1="312.7" x2="120.6" y2="317.2"/>
<line class="st0" x1="112.8" y1="317.2" x2="120.6" y2="312.7"/>
<line class="st0" x1="130.7" y1="310.5" x2="130.7" y2="319.5"/>
<line class="st0" x1="126.8" y1="312.7" x2="134.6" y2="317.2"/>
<line class="st0" x1="126.8" y1="317.2" x2="134.6" y2="312.7"/>
<line class="st0" x1="144.7" y1="310.5" x2="144.7" y2="319.5"/>
<line class="st0" x1="140.8" y1="312.7" x2="148.6" y2="317.2"/>
<line class="st0" x1="140.8" y1="317.2" x2="148.6" y2="312.7"/>
</svg>
