<?xml version="1.0" encoding="utf-8"?>
<!-- Generator: Adobe Illustrator 21.0.0, SVG Export Plug-In . SVG Version: 6.00 Build 0)  -->
<svg version="1.1" id="Layer_1" xmlns="http://www.w3.org/2000/svg" xmlns:xlink="http://www.w3.org/1999/xlink" x="0px" y="0px"
	 viewBox="0 0 288 560" style="enable-background:new 0 0 288 560;" xml:space="preserve">
<style type="text/css">
	.st0{fill:#4299FF;stroke:#505050;stroke-width:3;stroke-linecap:round;stroke-linejoin:round;}
</style>
<path class="st0" d="M124.8,372.3h-4.1c-0.6,0-1.1,0.5-1.1,1.1v5.4"/>
<line class="st0" x1="116" y1="353" x2="106.4" y2="353"/>
<circle class="st0" cx="119.7" cy="381.7" r="3"/>
<path class="st0" d="M118,363.1h-2.2c-0.6,0-1.1,0.5-1.1,1.1v2.5c0,0.6-0.5,1.1-1.1,1.1h-3.8"/>
<circle class="st0" cx="106.9" cy="367.7" r="3"/>
<path class="st0" d="M123.4,334h-3.2c-0.6,0-1.1-0.5-1.1-1.1v-4.4"/>
<circle class="st0" cx="103.5" cy="353" r="3"/>
<circle class="st0" cx="119.2" cy="325.5" r="3"/>
<path class="st0" d="M118,343.2h-2.2c-0.6,0-1.1-0.5-1.1-1.1v-2.5c0-0.6-0.5-1.1-1.1-1.1h-3.8"/>
<circle class="st0" cx="106.9" cy="338.6" r="3"/>
<path class="st0" d="M157.1,334h3.2c0.6,0,1.1-0.5,1.1-1.1v-4.4"/>
<line class="st0" x1="165" y1="353.3" x2="174.6" y2="353.3"/>
<circle class="st0" cx="161.3" cy="325.5" r="3"/>
<path class="st0" d="M163,343.2h2.2c0.6,0,1.1-0.5,1.1-1.1v-2.5c0-0.6,0.5-1.1,1.1-1.1h3.8"/>
<circle class="st0" cx="174.1" cy="338.6" r="3"/>
<path class="st0" d="M156.2,372.3h4.1c0.6,0,1.1,0.5,1.1,1.1v5.4"/>
<circle class="st0" cx="177.5" cy="353.3" r="3"/>
<circle class="st0" cx="161.3" cy="381.7" r="3"/>
<path class="st0" d="M163,363.1h2.2c0.6,0,1.1,0.5,1.1,1.1v2.5c0,0.6,0.5,1.1,1.1,1.1h3.8"/>
<circle class="st0" cx="174.1" cy="367.7" r="3"/>
<path class="st0" d="M127.3,339.7h26.4c2.7,0,4.9,2.2,4.9,4.9v18.3c0,2.7-2.2,4.9-4.9,4.9h-26.4c-2.7,0-4.9-2.2-4.9-4.9v-18.3
	C122.4,341.9,124.6,339.7,127.3,339.7z"/>
<path class="st0" d="M147.3,339.7v-6.1c0-3.8-3-6.8-6.8-6.8c-3.8,0-6.8,3-6.8,6.8c0,0,0,0,0,0v6.1"/>
<path class="st0" d="M129.2,339.7v-6.1c0-6.2,5.1-11.3,11.3-11.3c6.2,0,11.3,5.1,11.3,11.3v6.1"/>
<path class="st0" d="M140.2,360.4c-0.9,0-1.7-0.8-1.7-1.7v-4c0-0.1-0.1-0.3-0.2-0.3c-1.6-1.1-2.2-3.1-1.4-4.9
	c0.5-1.1,1.5-1.9,2.7-2.2c2.1-0.5,4.2,0.9,4.7,3c0.4,1.6-0.3,3.3-1.7,4.2c-0.1,0.1-0.2,0.2-0.2,0.3v4c0,0.9-0.8,1.7-1.7,1.7H140.2z"
	/>
</svg>
