<?xml version="1.0" encoding="utf-8"?>
<!-- Generator: Adobe Illustrator 21.0.0, SVG Export Plug-In . SVG Version: 6.00 Build 0)  -->
<svg version="1.1" id="Layer_1" xmlns="http://www.w3.org/2000/svg" xmlns:xlink="http://www.w3.org/1999/xlink" x="0px" y="0px"
	 viewBox="0 0 288 560" style="enable-background:new 0 0 288 560;" xml:space="preserve">
<style type="text/css">
	.st0{fill:#4299FF;stroke:#505050;stroke-width:3;stroke-linecap:round;stroke-linejoin:round;}
</style>
<path class="st0" d="M124.9,337h-4.2c-0.6,0-1.1,0.5-1.1,1.1v6.2"/>
<line class="st0" x1="115.8" y1="317.1" x2="105.5" y2="317.1"/>
<circle class="st0" cx="119.6" cy="346.7" r="2.4"/>
<path class="st0" d="M117.9,327.5h-3.3c-0.6,0-1.1,0.5-1.1,1.1c0,0,0,0,0,0v2.6c0,0.6-0.5,1.1-1.1,1.1h-3.4"/>
<circle class="st0" cx="106.5" cy="332.2" r="2.4"/>
<path class="st0" d="M124.9,297.6h-4.2c-0.6,0-1.1-0.5-1.1-1.1c0,0,0,0,0,0v-5.2"/>
<circle class="st0" cx="102.9" cy="317.1" r="2.4"/>
<circle class="st0" cx="119.6" cy="288.9" r="2.4"/>
<path class="st0" d="M117.9,307.1h-3.3c-0.6,0-1.1-0.5-1.1-1.1c0,0,0,0,0,0v-2.6c0-0.6-0.5-1.1-1.1-1.1h-3.4"/>
<circle class="st0" cx="106.5" cy="302.3" r="2.4"/>
<path class="st0" d="M156.1,297.6h4.2c0.6,0,1.1-0.5,1.1-1.1c0,0,0,0,0,0v-5.2"/>
<line class="st0" x1="165.2" y1="317.4" x2="175.5" y2="317.4"/>
<circle class="st0" cx="161.4" cy="288.9" r="2.4"/>
<path class="st0" d="M163.1,307.1h3.3c0.6,0,1.1-0.5,1.1-1.1c0,0,0,0,0,0v-2.6c0-0.6,0.5-1.1,1.1-1.1h3.4"/>
<circle class="st0" cx="174.5" cy="302.3" r="2.4"/>
<path class="st0" d="M156.1,337h4.2c0.6,0,1.1,0.5,1.1,1.1v6.2"/>
<circle class="st0" cx="178.1" cy="317.4" r="2.4"/>
<circle class="st0" cx="161.4" cy="346.7" r="2.4"/>
<path class="st0" d="M163.1,327.5h3.3c0.6,0,1.1,0.5,1.1,1.1c0,0,0,0,0,0v2.6c0,0.6,0.5,1.1,1.1,1.1h3.4"/>
<circle class="st0" cx="174.5" cy="332.2" r="2.4"/>
<path class="st0" d="M144.9,342.1v3.3c0,0.6,0.5,1.1,1.1,1.1h2.6c0.6,0,1.1,0.5,1.1,1.1v3.4"/>
<circle class="st0" cx="149.7" cy="353.5" r="2.4"/>
<path class="st0" d="M136.1,342.1v3.3c0,0.6-0.5,1.1-1.1,1.1h-2.6c-0.6,0-1.1,0.5-1.1,1.1v3.4"/>
<circle class="st0" cx="131.3" cy="353.5" r="2.4"/>
<path class="st0" d="M136.1,292.9v-3.3c0-0.6-0.4-1.1-1-1.1c0,0,0,0,0,0h-2.6c-0.6,0-1-0.4-1.1-1v-3.4"/>
<circle class="st0" cx="131.3" cy="281.5" r="2.4"/>
<path class="st0" d="M144.9,292.9v-3.3c0-0.6,0.4-1.1,1-1.1c0,0,0,0,0,0h2.6c0.6,0,1-0.4,1.1-1v-3.4"/>
<circle class="st0" cx="149.7" cy="281.5" r="2.4"/>
<circle class="st0" cx="140.5" cy="317.2" r="19.6"/>
<polyline class="st0" points="132.3,316.2 139,322.9 149.9,311.9 "/>
</svg>
