<?xml version="1.0" encoding="utf-8"?>
<!-- Generator: Adobe Illustrator 21.0.0, SVG Export Plug-In . SVG Version: 6.00 Build 0)  -->
<svg version="1.1" id="Layer_1" xmlns="http://www.w3.org/2000/svg" xmlns:xlink="http://www.w3.org/1999/xlink" x="0px" y="0px"
	 viewBox="0 0 288 560" style="enable-background:new 0 0 288 560;" xml:space="preserve">
<style type="text/css">
	.st0{fill:#4299FF;stroke:#505050;stroke-width:3;stroke-linecap:round;stroke-linejoin:round;}
</style>
<path class="st0" d="M124.7,289.5h31.5c4,0,7.3,3.2,7.3,7.3v65.5c0,4-3.2,7.3-7.3,7.3h-31.5c-4,0-7.3-3.2-7.3-7.3v-65.5
	C117.5,292.7,120.7,289.5,124.7,289.5z"/>
<line class="st0" x1="141.2" y1="362.4" x2="139.8" y2="362.4"/>
<path class="st0" d="M151.4,294.1v0.5c0,1.6-1.3,2.9-2.9,2.9c0,0,0,0,0,0h-16.1c-1.6,0-2.9-1.3-2.9-2.9v-0.5"/>
<polyline class="st0" points="134.8,328.7 139.4,333.4 147,325.8 "/>
<path class="st0" d="M140.5,312.8c0,0-7.2,5.6-13.2,5.6v14.1c-0.1,2.7,1.1,5.3,3.2,7.1c2.1,1.5,8.4,5.7,8.6,5.9l1.3,0.9l1.3-0.9
	c0.3-0.2,6.5-4.3,8.6-5.9c2.1-1.7,3.3-4.3,3.2-7.1v-14.1C147.7,318.3,140.5,312.8,140.5,312.8z"/>
</svg>
