<?xml version="1.0" encoding="utf-8"?>
<!-- Generator: Adobe Illustrator 21.0.0, SVG Export Plug-In . SVG Version: 6.00 Build 0)  -->
<svg version="1.1" id="Layer_1" xmlns="http://www.w3.org/2000/svg" xmlns:xlink="http://www.w3.org/1999/xlink" x="0px" y="0px"
	 viewBox="0 0 288 560" style="enable-background:new 0 0 288 560;" xml:space="preserve">
<style type="text/css">
	.st0{fill:#4299FF;stroke:#505050;stroke-width:3;stroke-linecap:round;stroke-linejoin:round;}
	.st1{fill:#4299FF;stroke:#505050;stroke-width:3;stroke-linecap:round;stroke-linejoin:round;stroke-dasharray:1,5;}
</style>
<path class="st0" d="M159.9,326.8c0,0,12.3,5,14.1,6.7c4,3.8,5,13.1,5,18.3c0.1,2.6,0.6,5.3,1.6,7.8"/>
<path class="st0" d="M168.3,339.6c-2.7-3.1-5.2-3-7.2-4.9c-3.9-3.8-3.6-3.6-7.2-7.1c-2.1-2.1-3.6-3.3-5.8-1.9
	c-1.8,1.2-1.6,2.8-0.7,4.7c1.1,2.4,7,10.1,8.3,11.9c0.3,0.4,0.4,0.8,0.5,1.3c0.2,2.5,0.9,9.8,10.6,12.4"/>
<path class="st0" d="M157.1,358.1c2.7,1.3,3.7,5.1,3.7,5.1"/>
<path class="st0" d="M136.9,357.9h10.4c2.8,0,5.4-1.4,6.9-3.8"/>
<path class="st0" d="M155.4,322v-15.6c0-4.5-3.6-8.1-8.1-8.1c0,0,0,0,0,0h-17c-4.5,0-8.1,3.6-8.1,8.1c0,0,0,0,0,0v16.9"/>
<line class="st0" x1="155.4" y1="307.8" x2="122.1" y2="307.8"/>
<line class="st0" x1="140.7" y1="303.1" x2="135.9" y2="303.1"/>
<line class="st0" x1="151.8" y1="348.3" x2="136.9" y2="348.3"/>
<path class="st0" d="M166.7,301c4.5,4.4,4.6,11.6,0.2,16c-0.1,0.1-0.1,0.1-0.2,0.2"/>
<path class="st0" d="M172,322.3c7.3-7.3,7.3-19.1,0-26.4c0,0,0,0,0,0"/>
<path class="st0" d="M162.6,313.2c2.3-2.1,2.4-5.7,0.3-8c-0.1-0.1-0.2-0.2-0.3-0.3"/>
<polyline class="st0" points="105.9,314.8 108.6,317.5 113.1,313 "/>
<path class="st0" d="M109.2,305.4c0,0-4.2,3.3-7.7,3.3v8.3c-0.1,1.6,0.6,3.1,1.9,4.1c1.2,0.9,4.9,3.4,5.1,3.4l0.8,0.5l0.8-0.5
	c0.2-0.1,3.9-2.5,5.1-3.4c1.2-1,1.9-2.5,1.9-4.1v-8.3C113.4,308.6,109.2,305.4,109.2,305.4z"/>
<line class="st1" x1="129.1" y1="317.4" x2="149.4" y2="317.4"/>
<path class="st0" d="M135.2,340.2l-16-12.9c-0.6-0.5-1.5-0.5-2.1,0l-16,12.9c-0.7,0.6-0.9,1.6-0.3,2.3c0.3,0.4,0.8,0.7,1.4,0.7h2.8
	c0.3,0,0.5,0.2,0.5,0.5v12.5c0,0.9,0.7,1.7,1.7,1.7h7.1c0.3,0,0.5-0.2,0.5-0.5v-8.9c0-0.4,0.4-0.8,0.8-0.8l0,0h5.5
	c0.4,0,0.8,0.4,0.8,0.8l0,0v8.9c0,0.3,0.2,0.5,0.5,0.5h7.6c0.9,0,1.7-0.7,1.7-1.7v-12.5c0-0.3,0.2-0.5,0.5-0.5h2.1
	c0.9,0,1.7-0.7,1.7-1.6C135.8,341,135.6,340.5,135.2,340.2z"/>
</svg>
