<?xml version="1.0" encoding="utf-8"?>
<!-- Generator: Adobe Illustrator 21.0.0, SVG Export Plug-In . SVG Version: 6.00 Build 0)  -->
<svg version="1.1" id="Layer_1" xmlns="http://www.w3.org/2000/svg" xmlns:xlink="http://www.w3.org/1999/xlink" x="0px" y="0px"
	 viewBox="0 0 288 560" style="enable-background:new 0 0 288 560;" xml:space="preserve">
<style type="text/css">
	.st0{fill:#4299FF;stroke:#505050;stroke-width:3;stroke-linecap:round;stroke-linejoin:round;}
</style>
<path class="st0" d="M141.1,362h35.9c-3.9,0-7.1-3.2-7.1-7.1v-1.3"/>
<path class="st0" d="M169.8,316.9v-12.8c0-3.9-3.2-7.1-7.1-7.1h-41.8c3.9,0,7.1,3.2,7.1,7.1v9.1"/>
<path class="st0" d="M120.9,297c-3.9,0-7.1,3.2-7.1,7.1v4.3H128"/>
<line class="st0" x1="161.8" y1="306.8" x2="136.5" y2="306.8"/>
<line class="st0" x1="161.8" y1="311.8" x2="136.5" y2="311.8"/>
<line class="st0" x1="161.8" y1="316.9" x2="136.5" y2="316.9"/>
<line class="st0" x1="156.1" y1="322" x2="136.5" y2="322"/>
<polyline class="st0" points="164.2,341.5 164.2,352 169.6,348.6 175,352 175,341.5 "/>
<ellipse transform="matrix(0.9746 -0.2241 0.2241 0.9746 -70.0513 46.4487)" class="st0" cx="169.6" cy="331.8" rx="10.9" ry="10.9"/>
<polyline class="st0" points="164.4,331.1 168.6,335.4 175.6,328.4 "/>
<line class="st0" x1="144.7" y1="327" x2="136.5" y2="327"/>
<path class="st0" d="M105.5,333.2h27.1c2.8,0,5,2.3,5,5V357c0,2.8-2.3,5-5,5h-27.1c-2.8,0-5-2.3-5-5v-18.8
	C100.5,335.4,102.8,333.2,105.5,333.2z"/>
<path class="st0" d="M126.1,333.2v-6.3c0-3.9-3.1-7-7-7s-7,3.1-7,7l0,0v6.3"/>
<path class="st0" d="M107.5,333.2v-6.3c0-6.4,5.2-11.6,11.6-11.6c6.4,0,11.6,5.2,11.6,11.6v6.3"/>
<path class="st0" d="M118.8,354.4c-1,0-1.7-0.8-1.7-1.7l0,0v-4.1c0-0.1-0.1-0.3-0.2-0.3c-1.7-1.1-2.3-3.2-1.5-5.1
	c0.5-1.2,1.6-2,2.8-2.3c2.1-0.6,4.3,0.6,5,2.7c0.5,1.8-0.3,3.7-1.9,4.6c-0.1,0.1-0.2,0.2-0.2,0.3v4.1c0,1-0.8,1.7-1.7,1.7l0,0
	L118.8,354.4z"/>
</svg>
