<?xml version="1.0" encoding="utf-8"?>
<!-- Generator: Adobe Illustrator 21.0.0, SVG Export Plug-In . SVG Version: 6.00 Build 0)  -->
<svg version="1.1" id="Layer_1" xmlns="http://www.w3.org/2000/svg" xmlns:xlink="http://www.w3.org/1999/xlink" x="0px" y="0px"
	 viewBox="0 0 288 560" style="enable-background:new 0 0 288 560;" xml:space="preserve">
<style type="text/css">
	.st0{fill:#4299FF;stroke:#505050;stroke-width:3;stroke-linecap:round;stroke-linejoin:round;}
</style>
<circle class="st0" cx="119.3" cy="319.1" r="11.3"/>
<polyline class="st0" points="128.3,369.5 128.3,364.6 128.3,361.6 128.3,361.6 128.3,347.2 "/>
<path class="st0" d="M110.4,347.2v14.4l0,0v7.9"/>
<path class="st0" d="M110.3,361.1c0,2.3-1.8,4.2-4.1,4.2c0,0,0,0,0,0c-2.3,0-3.8-1.9-3.8-4.2v-13.1c0-6.8,5.5-12.2,12.2-12.2h9.3
	c6.8,0,12.2,5.5,12.2,12.2v13.1c0,2.3-1.5,4.2-3.8,4.2c-2.3,0-4.1-1.9-4.1-4.2c0,0,0,0,0,0"/>
<polyline class="st0" points="149.5,314.1 156.7,321.2 168.3,309.5 "/>
<path class="st0" d="M158.3,289.5c0,0-11,8.6-20.3,8.6v21.7c0,4.5,1.9,8.6,4.9,10.9c3.1,2.3,12.9,8.8,13.3,9l2,1.3l2-1.3
	c0.4-0.3,10.1-6.6,13.3-9s4.9-6.4,4.9-10.9v-21.7C169.4,298.1,158.3,289.5,158.3,289.5z"/>
</svg>
