<?xml version="1.0" encoding="utf-8"?>
<!-- Generator: Adobe Illustrator 21.0.0, SVG Export Plug-In . SVG Version: 6.00 Build 0)  -->
<svg version="1.1" id="Layer_1" xmlns="http://www.w3.org/2000/svg" xmlns:xlink="http://www.w3.org/1999/xlink" x="0px" y="0px"
	 viewBox="0 0 681 551" style="enable-background:new 0 0 681 551;" xml:space="preserve">
<style type="text/css">
	.st0{fill:#4299FF;stroke:#505050;stroke-width:3;stroke-linecap:round;stroke-linejoin:round;}
	.st1{fill:#4299FF;stroke:#505050;stroke-width:3;stroke-linecap:round;stroke-linejoin:round;stroke-dasharray:1,5;}
	.st2{fill:#4299FF;stroke:#505050;stroke-width:3;stroke-linecap:round;stroke-linejoin:round;stroke-dasharray:0.13,9.03;}
</style>
<title>AdobeStock_290033459</title>
<path class="st0" d="M340.5,446.4c23.6,0,40,24.1,40,24.1s-16.4,24.1-40,24.1s-40-24.1-40-24.1S316.9,446.4,340.5,446.4z"/>
<circle class="st0" cx="341" cy="470.5" r="17.2"/>
<polyline class="st0" points="333.7,469.7 339.6,475.6 349.3,466 "/>
<path class="st0" d="M304.1,451.3v-3.7c0-1.3,1-2.3,2.3-2.3h3.7"/>
<path class="st0" d="M310.1,495.7h-3.7c-1.3,0-2.3-1-2.3-2.3v-3.7"/>
<path class="st0" d="M376.9,489.7v3.7c0,1.3-1,2.3-2.3,2.3h-3.7"/>
<path class="st0" d="M370.9,445.3h3.7c1.3,0,2.3,1,2.3,2.3v3.7"/>
<path class="st0" d="M46.5,69.8l-4.6,3.7c-1.6,1.3-1.9,3.7-0.6,5.3c0.7,0.9,1.8,1.4,3,1.4h6.2c0.6,0,1.1,0.5,1.1,1.1v28.4
	c0,2.1,1.7,3.8,3.8,3.8c0,0,0,0,0.1,0H107c2.1,0,3.8-1.7,3.8-3.8l0,0V81.4c0-0.6,0.5-1.1,1.1-1.1h4.8c2.1,0,3.8-1.7,3.8-3.8
	c0-1.1-0.5-2.2-1.4-2.9L104.9,62c-0.1-0.1-0.2-0.2-0.2-0.4V47.9c0-0.7-0.5-1.2-1.2-1.2h-6.6c-0.7,0-1.2,0.6-1.2,1.2v0v5.7
	c0,0.3-0.2,0.5-0.5,0.5c-0.1,0-0.2,0-0.3-0.1l-12-9.7c-1.4-1.1-3.4-1.1-4.8,0l-4.9,4"/>
<circle class="st0" cx="80.5" cy="84" r="18.8"/>
<polyline class="st0" points="72.5,83.2 79,89.6 89.6,79.1 "/>
<path class="st0" d="M68,59.3c-4.8-0.4-9,3-9.6,7.8"/>
<path class="st0" d="M68.5,52.2c-8.6-0.7-16.2,5.5-17.2,14"/>
<path class="st0" d="M64.7,170.5h31.5c4,0,7.3,3.2,7.3,7.3v65.5c0,4-3.2,7.3-7.3,7.3H64.7c-4,0-7.2-3.2-7.2-7.3v-65.5
	C57.5,173.7,60.7,170.5,64.7,170.5z"/>
<line class="st0" x1="81.2" y1="243.4" x2="79.8" y2="243.4"/>
<path class="st0" d="M91.4,175.1v0.5c0,1.6-1.3,2.9-2.9,2.9c0,0,0,0,0,0H72.4c-1.6,0-2.9-1.3-2.9-2.9v-0.5"/>
<polyline class="st0" points="74.8,209.7 79.4,214.4 87,206.8 "/>
<path class="st0" d="M80.5,193.8c0,0-7.2,5.6-13.2,5.6v14.1c-0.1,2.7,1.1,5.3,3.2,7.1c2.1,1.6,8.4,5.7,8.6,5.9l1.3,0.9l1.3-0.9
	c0.3-0.2,6.5-4.3,8.6-5.9c2.1-1.7,3.3-4.3,3.2-7.1v-14.1C87.7,199.3,80.5,193.8,80.5,193.8z"/>
<path class="st0" d="M187.1,72.8c1.6-1.7,3.9-2.7,6.2-2.7h46.4c4.8,0,8.6,3.9,8.6,8.6v32.2c0,4.8-3.9,8.6-8.6,8.6h-44.4"/>
<path class="st0" d="M228.5,70.1V59.4c0.5-6.6-4.4-12.4-11-12.9c-6.6-0.5-12.4,4.4-12.9,11c-0.1,0.7-0.1,1.3,0,2v10.8"/>
<path class="st0" d="M196.7,70.1V59.4c0-11,8.9-19.9,19.9-19.9c11,0,19.9,8.9,19.9,19.9v10.8"/>
<path class="st0" d="M216.1,106.4c-1.7,0-3-1.3-3-3v-6.9c0-0.2-0.1-0.4-0.3-0.6c-2.9-1.9-3.9-5.5-2.5-8.7c0.9-2,2.7-3.4,4.8-3.9
	c3.7-0.8,7.4,1.5,8.3,5.2c0.6,2.8-0.6,5.7-3,7.3c-0.2,0.1-0.3,0.3-0.3,0.6v7c0,1.7-1.3,3-3,3L216.1,106.4z"/>
<path class="st0" d="M184.7,78.6c0,0-8.8,6.8-16.1,6.8v17.3c-0.1,3.3,1.3,6.5,3.9,8.6c2.6,1.9,10.2,7,10.6,7.2l1.6,1.1l1.6-1.1
	c0.3-0.2,8-5.3,10.6-7.2c2.6-2.1,4-5.3,3.9-8.6V85.4C193.5,85.4,184.7,78.6,184.7,78.6z"/>
<polyline class="st0" points="178.1,98.1 183.5,103.4 192.3,94.7 "/>
<path class="st0" d="M316.4,58.1v-8.2c0-5.2,4.2-9.3,9.4-9.3l0,0h30.3c5.2,0,9.4,4.1,9.4,9.3c0,0,0,0,0,0v61.3
	c0,5.2-4.2,9.3-9.4,9.3l0,0h-30.4c-5.2,0-9.4-4.2-9.4-9.3l0,0V97.9"/>
<line class="st0" x1="316.4" y1="54.7" x2="365.5" y2="54.7"/>
<line class="st0" x1="337.7" y1="47.6" x2="344.2" y2="47.6"/>
<line class="st0" x1="316.4" y1="106.3" x2="365.5" y2="106.3"/>
<line class="st0" x1="358.6" y1="69" x2="350.6" y2="61"/>
<line class="st0" x1="359.6" y1="63" x2="357" y2="60.4"/>
<path class="st0" d="M303,63.1h37.5c3,0,5.4,2.4,5.4,5.4c0,0,0,0,0,0v18.9c0,3-2.4,5.4-5.4,5.4H332c-0.4,0-0.7,0.3-0.7,0.7v0v7.1
	c0,0.4-0.3,0.7-0.7,0.7c-0.2,0-0.4-0.1-0.5-0.2l-8-8c-0.1-0.1-0.3-0.2-0.5-0.2H303c-3,0-5.4-2.4-5.5-5.4c0,0,0,0,0-0.1V68.5
	C297.5,65.5,299.9,63.1,303,63.1C302.9,63.1,303,63.1,303,63.1z"/>
<line class="st0" x1="307.7" y1="73.5" x2="307.7" y2="82.4"/>
<line class="st0" x1="303.8" y1="75.7" x2="311.6" y2="80.2"/>
<line class="st0" x1="303.8" y1="80.2" x2="311.6" y2="75.7"/>
<line class="st0" x1="321.7" y1="73.5" x2="321.7" y2="82.4"/>
<line class="st0" x1="317.8" y1="75.7" x2="325.6" y2="80.2"/>
<line class="st0" x1="317.8" y1="80.2" x2="325.6" y2="75.7"/>
<line class="st0" x1="335.7" y1="73.5" x2="335.7" y2="82.4"/>
<line class="st0" x1="331.8" y1="75.7" x2="339.6" y2="80.2"/>
<line class="st0" x1="331.8" y1="80.2" x2="339.6" y2="75.7"/>
<path class="st0" d="M454.9,100h-4.2c-0.6,0-1.1,0.5-1.1,1.1v6.2"/>
<line class="st0" x1="445.8" y1="80.1" x2="435.5" y2="80.1"/>
<circle class="st0" cx="449.6" cy="109.7" r="2.4"/>
<path class="st0" d="M447.9,90.5h-3.3c-0.6,0-1.1,0.5-1.1,1.1c0,0,0,0,0,0v2.6c0,0.6-0.5,1.1-1.1,1.1h-3.4"/>
<circle class="st0" cx="436.5" cy="95.2" r="2.4"/>
<path class="st0" d="M454.9,60.6h-4.2c-0.6,0-1.1-0.5-1.1-1.1c0,0,0,0,0,0v-5.2"/>
<circle class="st0" cx="432.9" cy="80.1" r="2.4"/>
<circle class="st0" cx="449.6" cy="51.9" r="2.4"/>
<path class="st0" d="M447.9,70.1h-3.3c-0.6,0-1.1-0.5-1.1-1.1c0,0,0,0,0,0v-2.6c0-0.6-0.5-1.1-1.1-1.1h-3.4"/>
<circle class="st0" cx="436.5" cy="65.3" r="2.4"/>
<path class="st0" d="M486.1,60.6h4.2c0.6,0,1.1-0.5,1.1-1.1c0,0,0,0,0,0v-5.2"/>
<line class="st0" x1="495.2" y1="80.4" x2="505.5" y2="80.4"/>
<circle class="st0" cx="491.4" cy="51.9" r="2.4"/>
<path class="st0" d="M493.1,70.1h3.3c0.6,0,1.1-0.5,1.1-1.1c0,0,0,0,0,0v-2.6c0-0.6,0.5-1.1,1.1-1.1h3.4"/>
<circle class="st0" cx="504.5" cy="65.3" r="2.4"/>
<path class="st0" d="M486.1,100h4.2c0.6,0,1.1,0.5,1.1,1.1v6.2"/>
<circle class="st0" cx="508.1" cy="80.4" r="2.4"/>
<circle class="st0" cx="491.4" cy="109.7" r="2.4"/>
<path class="st0" d="M493.1,90.5h3.3c0.6,0,1.1,0.5,1.1,1.1c0,0,0,0,0,0v2.6c0,0.6,0.5,1.1,1.1,1.1h3.4"/>
<circle class="st0" cx="504.5" cy="95.2" r="2.4"/>
<path class="st0" d="M474.9,105.1v3.3c0,0.6,0.5,1.1,1.1,1.1h2.6c0.6,0,1.1,0.5,1.1,1.1v3.4"/>
<circle class="st0" cx="479.7" cy="116.5" r="2.4"/>
<path class="st0" d="M466.1,105.1v3.3c0,0.6-0.5,1.1-1.1,1.1h-2.6c-0.6,0-1.1,0.5-1.1,1.1v3.4"/>
<circle class="st0" cx="461.3" cy="116.5" r="2.4"/>
<path class="st0" d="M466.1,55.9v-3.3c0-0.6-0.4-1.1-1-1.1c0,0,0,0,0,0h-2.6c-0.6,0-1-0.4-1.1-1v-3.4"/>
<circle class="st0" cx="461.3" cy="44.5" r="2.4"/>
<path class="st0" d="M474.9,55.9v-3.3c0-0.6,0.4-1.1,1-1.1c0,0,0,0,0,0h2.6c0.6,0,1-0.4,1.1-1v-3.4"/>
<circle class="st0" cx="479.7" cy="44.5" r="2.4"/>
<circle class="st0" cx="470.5" cy="80.2" r="19.6"/>
<polyline class="st0" points="462.3,79.2 469,85.9 479.9,74.9 "/>
<path class="st0" d="M230.9,209.8c0,0,12.3,5,14.1,6.7c4,3.8,5,13.1,5,18.3c0.1,2.6,0.6,5.3,1.6,7.8"/>
<path class="st0" d="M239.3,222.6c-2.7-3.1-5.2-3-7.2-4.9c-3.9-3.8-3.6-3.6-7.2-7.1c-2.1-2.1-3.6-3.3-5.8-1.9
	c-1.8,1.2-1.6,2.8-0.7,4.7c1.1,2.4,7,10.1,8.3,11.9c0.3,0.4,0.4,0.8,0.5,1.3c0.2,2.5,0.9,9.8,10.6,12.4"/>
<path class="st0" d="M228.1,241.1c2.7,1.3,3.7,5.1,3.7,5.1"/>
<path class="st0" d="M207.9,240.9h10.4c2.8,0,5.4-1.4,6.9-3.8"/>
<path class="st0" d="M226.4,205v-15.6c0-4.5-3.6-8.1-8.1-8.1c0,0,0,0,0,0h-17c-4.5,0-8.1,3.6-8.1,8.1c0,0,0,0,0,0v16.9"/>
<line class="st0" x1="226.4" y1="190.8" x2="193.1" y2="190.8"/>
<line class="st0" x1="211.7" y1="186.1" x2="206.9" y2="186.1"/>
<line class="st0" x1="222.8" y1="231.3" x2="207.9" y2="231.3"/>
<path class="st0" d="M237.7,184c4.5,4.4,4.6,11.6,0.2,16c-0.1,0.1-0.1,0.1-0.2,0.2"/>
<path class="st0" d="M243,205.3c7.3-7.3,7.3-19.1,0-26.4c0,0,0,0,0,0"/>
<path class="st0" d="M233.6,196.2c2.3-2.1,2.4-5.7,0.3-8c-0.1-0.1-0.2-0.2-0.3-0.3"/>
<polyline class="st0" points="176.9,197.8 179.6,200.5 184.1,196 "/>
<path class="st0" d="M180.2,188.4c0,0-4.2,3.3-7.7,3.3v8.3c-0.1,1.6,0.6,3.1,1.9,4.1c1.2,0.9,4.9,3.4,5.1,3.4l0.8,0.5l0.8-0.5
	c0.2-0.1,3.9-2.5,5.1-3.4c1.2-1,1.9-2.5,1.9-4.1v-8.3C184.4,191.6,180.2,188.4,180.2,188.4z"/>
<line class="st1" x1="200.1" y1="200.4" x2="220.4" y2="200.4"/>
<path class="st0" d="M206.2,223.2l-16-12.9c-0.6-0.5-1.5-0.5-2.1,0l-16,12.9c-0.7,0.6-0.9,1.6-0.3,2.3c0.3,0.4,0.8,0.7,1.4,0.7h2.8
	c0.3,0,0.5,0.2,0.5,0.5v12.5c0,0.9,0.7,1.7,1.7,1.7h7.1c0.3,0,0.5-0.2,0.5-0.5v-8.9c0-0.4,0.4-0.8,0.8-0.8l0,0h5.5
	c0.4,0,0.8,0.4,0.8,0.8l0,0v8.9c0,0.3,0.2,0.5,0.5,0.5h7.6c0.9,0,1.7-0.7,1.7-1.7v-12.5c0-0.3,0.2-0.5,0.5-0.5h2.1
	c0.9,0,1.7-0.7,1.7-1.6C206.8,224,206.6,223.5,206.2,223.2z"/>
<path class="st0" d="M340.1,243h35.9c-3.9,0-7.1-3.2-7.1-7.1v-1.3"/>
<path class="st0" d="M368.8,197.9v-12.8c0-3.9-3.2-7.1-7.1-7.1h-41.8c3.9,0,7.1,3.2,7.1,7.1v9.1"/>
<path class="st0" d="M319.9,178c-3.9,0-7.1,3.2-7.1,7.1v4.3H327"/>
<line class="st0" x1="360.8" y1="187.8" x2="335.5" y2="187.8"/>
<line class="st0" x1="360.8" y1="192.8" x2="335.5" y2="192.8"/>
<line class="st0" x1="360.8" y1="197.9" x2="335.5" y2="197.9"/>
<line class="st0" x1="355.1" y1="203" x2="335.5" y2="203"/>
<polyline class="st0" points="363.2,222.4 363.2,233 368.6,229.6 374,233 374,222.5 "/>
<ellipse transform="matrix(0.9746 -0.2241 0.2241 0.9746 -38.3219 88.0181)" class="st0" cx="368.6" cy="212.8" rx="10.9" ry="10.9"/>
<polyline class="st0" points="363.4,212.1 367.6,216.4 374.6,209.4 "/>
<line class="st0" x1="343.7" y1="208" x2="335.5" y2="208"/>
<path class="st0" d="M304.5,214.2h27.1c2.8,0,5,2.3,5,5V238c0,2.8-2.3,5-5,5h-27.1c-2.8,0-5-2.3-5-5v-18.8
	C299.5,216.4,301.8,214.2,304.5,214.2z"/>
<path class="st0" d="M325.1,214.2v-6.3c0-3.9-3.1-7-7-7s-7,3.1-7,7l0,0v6.3"/>
<path class="st0" d="M306.5,214.2v-6.3c0-6.4,5.2-11.6,11.6-11.6c6.4,0,11.6,5.2,11.6,11.6v6.3"/>
<path class="st0" d="M317.8,235.4c-1,0-1.7-0.8-1.7-1.7l0,0v-4.1c0-0.1-0.1-0.3-0.2-0.3c-1.7-1.1-2.3-3.2-1.5-5.1
	c0.5-1.2,1.6-2,2.8-2.3c2.1-0.6,4.3,0.6,5,2.7c0.5,1.8-0.3,3.7-1.9,4.6c-0.1,0.1-0.2,0.2-0.2,0.3v4.1c0,1-0.8,1.7-1.7,1.7l0,0
	L317.8,235.4z"/>
<circle class="st0" cx="448.3" cy="200.1" r="11.3"/>
<polyline class="st0" points="457.3,250.5 457.3,245.6 457.3,242.6 457.3,242.6 457.3,228.2 "/>
<path class="st0" d="M439.4,228.2v14.4l0,0v7.9"/>
<path class="st0" d="M439.3,242.1c0,2.3-1.8,4.2-4.1,4.2c0,0,0,0,0,0c-2.3,0-3.8-1.9-3.8-4.2v-13.1c0-6.8,5.5-12.2,12.2-12.2h9.3
	c6.8,0,12.2,5.5,12.2,12.2v13.1c0,2.3-1.5,4.2-3.8,4.2c-2.3,0-4.1-1.9-4.1-4.2c0,0,0,0,0,0"/>
<polyline class="st0" points="478.5,195.1 485.7,202.2 497.3,190.5 "/>
<path class="st0" d="M487.3,170.5c0,0-11,8.6-20.3,8.6v21.7c0,4.5,1.9,8.6,4.9,10.9s12.9,8.8,13.3,9l2,1.3l2-1.3
	c0.4-0.3,10.1-6.6,13.3-9s4.9-6.4,4.9-10.9v-21.7C498.4,179.1,487.3,170.5,487.3,170.5z"/>
<circle class="st0" cx="53.5" cy="354.8" r="8.3"/>
<path class="st0" d="M40.5,374.9c1.5-3.8,5.1-6.3,9.2-6.4h7.5c4.1,0,7.7,2.5,9.2,6.3"/>
<circle class="st0" cx="107.5" cy="355.6" r="8.3"/>
<path class="st0" d="M94.6,375.6c1.5-3.8,5.1-6.3,9.2-6.3h7.5c4.1,0,7.7,2.5,9.2,6.3"/>
<path class="st0" d="M90.2,317.5v-6.4c0-3.1-2.5-5.7-5.7-5.7H53.3c-3.1,0-5.7,2.5-5.7,5.7l0,0v18.7c0,3.1,2.5,5.7,5.6,5.7
	c0,0,0,0,0,0h11.8c0.4,0,0.7,0.3,0.7,0.7l0,0v7.3c0,0.4,0.3,0.7,0.7,0.7c0.2,0,0.4-0.1,0.5-0.2l8.4-8.4c0.1-0.1,0.3-0.2,0.5-0.2h2.5
	"/>
<line class="st2" x1="59.7" y1="320.4" x2="78.3" y2="320.4"/>
<path class="st0" d="M86.3,322.2H104c1.8,0,3.2,1.4,3.2,3.2l0,0v10.6c0,1.8-1.4,3.2-3.2,3.2h0h-6.7c-0.2,0-0.4,0.2-0.4,0.4l0,0v4.2
	c0,0.2-0.2,0.4-0.4,0.4c-0.1,0-0.2,0-0.3-0.1l-4.8-4.7c-0.1-0.1-0.2-0.1-0.3-0.1h-4.9c-1.8,0-3.2-1.4-3.2-3.2l0,0v-10.6
	C83.1,323.7,84.6,322.2,86.3,322.2L86.3,322.2z"/>
<polyline class="st0" points="75.5,359.6 79.6,363.7 86.3,357 "/>
<path class="st0" d="M80.5,345.5c0,0-6.3,4.9-11.6,4.9v12.4c-0.1,2.4,1,4.7,2.8,6.2c1.8,1.4,7.4,5,7.6,5.2l1.2,0.8l1.2-0.8
	c0.2-0.1,5.8-3.8,7.6-5.2c1.9-1.5,2.9-3.8,2.8-6.2v-12.4C86.8,350.4,80.5,345.5,80.5,345.5z"/>
<line class="st0" x1="197.7" y1="370" x2="197.7" y2="350.3"/>
<line class="st0" x1="223.3" y1="350.3" x2="223.3" y2="370"/>
<path class="st0" d="M223.3,365.7h23.8c1.9,0,3.4,1.5,3.4,3.4v8.7h-80v-15.2c0-1.9,1.5-3.4,3.4-3.4h23.8"/>
<path class="st0" d="M223.5,350.3h-26c-1.5,0-2.7-1.2-2.7-2.7l0,0l0,0c0-1.5,1.2-2.7,2.7-2.7l0,0h26c1.5,0,2.7,1.2,2.7,2.7l0,0l0,0
	C226.2,349.1,225,350.3,223.5,350.3L223.5,350.3z"/>
<line class="st0" x1="205.4" y1="358.1" x2="215.6" y2="358.1"/>
<line class="st0" x1="205.4" y1="364.3" x2="215.6" y2="364.3"/>
<line class="st0" x1="184.6" y1="328.9" x2="184.6" y2="353.8"/>
<polyline class="st0" points="189.7,334.1 184.6,328.9 179.5,334.1 "/>
<line class="st0" x1="236.8" y1="341.8" x2="236.8" y2="360.3"/>
<polyline class="st0" points="241.9,347 236.8,341.8 231.7,347 "/>
<polyline class="st0" points="203.7,318.3 209.2,323.8 218.3,314.8 "/>
<path class="st0" d="M210.5,299.2c0,0-8.6,6.6-15.7,6.6v16.8c-0.1,3.3,1.3,6.4,3.8,8.4c2.5,1.9,10,6.8,10.3,7l1.6,1l1.6-1
	c0.3-0.2,7.8-5.1,10.3-7c2.5-2.1,3.9-5.2,3.8-8.4v-16.8C219.1,305.9,210.5,299.2,210.5,299.2z"/>
<line class="st0" x1="340.5" y1="316.3" x2="340.5" y2="313.7"/>
<circle class="st0" cx="340.5" cy="304.6" r="4.1"/>
<line class="st0" x1="340.5" y1="354.6" x2="340.5" y2="367.3"/>
<circle class="st0" cx="340.5" cy="376.4" r="4.1"/>
<line class="st0" x1="323.7" y1="340.5" x2="313.7" y2="340.5"/>
<circle class="st0" cx="304.6" cy="340.5" r="4.1"/>
<line class="st0" x1="357.3" y1="340.5" x2="367.3" y2="340.5"/>
<circle class="st0" cx="376.4" cy="340.5" r="4.1"/>
<line class="st0" x1="327.5" y1="327.5" x2="321.6" y2="321.6"/>
<ellipse transform="matrix(0.7071 -0.7071 0.7071 0.7071 -130.5153 315.0882)" class="st0" cx="315.1" cy="315.1" rx="4.1" ry="4.1"/>
<line class="st0" x1="353.6" y1="353.6" x2="359.4" y2="359.4"/>
<ellipse transform="matrix(0.7071 -0.7071 0.7071 0.7071 -151.5655 365.9084)" class="st0" cx="365.9" cy="365.9" rx="4.1" ry="4.1"/>
<line class="st0" x1="327.4" y1="353.6" x2="321.6" y2="359.4"/>
<ellipse transform="matrix(0.7071 -0.7071 0.7071 0.7071 -166.4526 329.9782)" class="st0" cx="315.1" cy="365.9" rx="4.1" ry="4.1"/>
<line class="st0" x1="353.5" y1="327.5" x2="359.4" y2="321.6"/>
<ellipse transform="matrix(0.7071 -0.7071 0.7071 0.7071 -115.6282 351.0184)" class="st0" cx="365.9" cy="315.1" rx="4.1" ry="4.1"/>
<path class="st0" d="M331.3,330.8h18.3c1.9,0,3.4,1.5,3.4,3.4v12.7c0,1.9-1.5,3.4-3.4,3.4h-18.3c-1.9,0-3.4-1.5-3.4-3.4v-12.7
	C327.9,332.3,329.5,330.8,331.3,330.8z"/>
<path class="st0" d="M333.9,330.8v-3.6c0-3.7,3-6.7,6.7-6.7s6.7,3,6.7,6.7l0,0v3.6"/>
<polyline class="st0" points="335.8,339.9 339.6,343.7 345.8,337.5 "/>
<path class="st0" d="M482.7,350.8l2-4.1c0.3-0.6,1.1-0.9,1.7-0.6c0.3,0.1,0.5,0.3,0.6,0.6l2.6,5.2c0.2,0.4,0.6,0.7,1,0.7l5.8,0.8
	c0.7,0.1,1.2,0.7,1.1,1.5c0,0.3-0.2,0.6-0.4,0.8l-4.2,4.1c-0.3,0.3-0.4,0.7-0.4,1.1l1,5.7c0.1,0.7-0.3,1.4-1,1.5
	c-0.3,0.1-0.6,0-0.8-0.1l-5.2-2.7c-0.4-0.2-0.8-0.2-1.2,0l-5.2,2.7c-0.6,0.3-1.4,0.1-1.8-0.6c-0.1-0.3-0.2-0.5-0.1-0.8l1-5.7
	c0.1-0.4-0.1-0.9-0.4-1.1l-4.2-4.1"/>
<path class="st0" d="M458.3,350.8l-2-4.1c-0.3-0.6-1.1-0.9-1.7-0.6c-0.3,0.1-0.5,0.3-0.6,0.6l-2.6,5.2c-0.2,0.4-0.6,0.7-1,0.7
	l-5.8,0.8c-0.7,0.1-1.2,0.7-1.1,1.5c0,0.3,0.2,0.6,0.4,0.8l4.2,4.1c0.3,0.3,0.4,0.7,0.4,1.1l-1,5.7c-0.1,0.7,0.4,1.4,1.1,1.5
	c0.3,0,0.6,0,0.8-0.1l5.2-2.7c0.4-0.2,0.8-0.2,1.2,0l5.2,2.7c0.6,0.3,1.4,0.1,1.7-0.5c0.1-0.3,0.2-0.6,0.1-0.8l-1-5.7
	c-0.1-0.4,0.1-0.9,0.4-1.1l4.2-4.1"/>
<path class="st0" d="M444.4,349l-1.2-2.3c-0.3-0.6-1.1-0.9-1.7-0.6c-0.3,0.1-0.5,0.3-0.6,0.6l-2.6,5.2c-0.2,0.4-0.6,0.7-1,0.7
	l-5.8,0.8c-0.7,0.1-1.2,0.7-1.1,1.5c0,0.3,0.2,0.6,0.4,0.8l4.2,4.1c0.3,0.3,0.4,0.7,0.4,1.1l-1,5.7c-0.1,0.7,0.3,1.4,1,1.5
	c0.3,0.1,0.6,0,0.8-0.1l5.2-2.7c0.4-0.2,0.8-0.2,1.2,0l0.5,0.3"/>
<path class="st0" d="M496.6,349l1.2-2.3c0.3-0.6,1.1-0.9,1.7-0.6c0.3,0.1,0.5,0.3,0.6,0.6l2.6,5.2c0.2,0.4,0.6,0.7,1,0.7l5.8,0.8
	c0.7,0.1,1.2,0.7,1.1,1.5c0,0.3-0.2,0.6-0.4,0.8l-4.2,4.1c-0.3,0.3-0.4,0.7-0.4,1.1l1,5.7c0.1,0.7-0.3,1.4-1,1.5
	c-0.3,0.1-0.6,0-0.8-0.1l-5.2-2.7c-0.4-0.2-0.8-0.2-1.2,0l-0.5,0.3"/>
<circle class="st0" cx="488.8" cy="316.7" r="5.8"/>
<polyline class="st0" points="493.4,344.5 493.4,341 493.4,339.4 493.4,339.4 493.4,332 "/>
<path class="st0" d="M482.2,327.6c1.2-1,2.6-1.6,4.1-1.5h4.8c3.5,0,6.3,2.8,6.3,6.3v6.8c0.1,1.1-0.7,2.1-1.8,2.2c0,0-0.1,0-0.1,0
	c-1.2,0-2.1-1-2.1-2.2"/>
<circle class="st0" cx="452.2" cy="316.7" r="5.8"/>
<path class="st0" d="M447.6,332v7.4l0,0v5.1"/>
<path class="st0" d="M447.5,339.2c0,1.2-0.9,2.2-2.1,2.2c-1.1,0-2-0.9-2-2c0,0,0-0.1,0-0.1v-6.8c0-3.5,2.8-6.3,6.3-6.3h4.8
	c1.5,0,3,0.5,4.1,1.5"/>
<polyline class="st0" points="466.3,339.8 469.7,343.2 475.2,337.6 "/>
<path class="st0" d="M470.5,328.2c0,0-5.2,4-9.6,4v10.3c-0.1,2,0.8,3.9,2.3,5.1c1.5,1.1,6.1,4.1,6.3,4.3l1,0.6l1-0.6
	c0.2-0.1,4.8-3.1,6.3-4.3c1.5-1.2,2.4-3.1,2.3-5.1v-10.3C475.7,332.2,470.5,328.2,470.5,328.2z"/>
<path class="st0" d="M41,491.8h78.9c0.3,0,0.5,0.2,0.6,0.5v1.7c0,1.6-1.3,2.9-2.9,2.9l0,0H43.4c-1.6,0-2.9-1.3-2.9-2.9v-1.7
	C40.5,492.1,40.7,491.8,41,491.8C41,491.8,41,491.8,41,491.8z"/>
<line class="st0" x1="79.3" y1="448" x2="81.7" y2="448"/>
<line class="st0" x1="48.2" y1="451.9" x2="112.8" y2="451.9"/>
<path class="st0" d="M40.9,491.8l7.3-8.1v-33.8c0-3.2,2.6-5.9,5.9-5.9H107c3.2,0,5.9,2.6,5.9,5.9v33.8l7.3,8.1"/>
<line class="st0" x1="48.2" y1="483.8" x2="112.8" y2="483.8"/>
<line class="st0" x1="79.3" y1="488" x2="80.9" y2="488"/>
<line class="st0" x1="84.9" y1="488" x2="86.6" y2="488"/>
<line class="st0" x1="68" y1="488" x2="69.6" y2="488"/>
<line class="st0" x1="73.6" y1="488" x2="75.3" y2="488"/>
<line class="st0" x1="62.3" y1="488" x2="63.9" y2="488"/>
<line class="st0" x1="51" y1="488" x2="52.6" y2="488"/>
<line class="st0" x1="56.7" y1="488" x2="58.3" y2="488"/>
<line class="st0" x1="102.7" y1="488" x2="104.3" y2="488"/>
<line class="st0" x1="108.4" y1="488" x2="110" y2="488"/>
<line class="st0" x1="97.1" y1="488" x2="98.7" y2="488"/>
<line class="st0" x1="65.3" y1="462.9" x2="65.3" y2="472.6"/>
<line class="st0" x1="61.1" y1="465.4" x2="69.5" y2="470.2"/>
<line class="st0" x1="61.1" y1="470.2" x2="69.5" y2="465.4"/>
<line class="st0" x1="80.5" y1="462.9" x2="80.5" y2="472.6"/>
<line class="st0" x1="76.3" y1="465.4" x2="84.7" y2="470.2"/>
<line class="st0" x1="76.3" y1="470.2" x2="84.7" y2="465.4"/>
<line class="st0" x1="95.7" y1="462.9" x2="95.7" y2="472.6"/>
<line class="st0" x1="91.5" y1="465.4" x2="99.9" y2="470.2"/>
<line class="st0" x1="91.5" y1="470.2" x2="99.9" y2="465.4"/>
<polyline class="st0" points="187,453.8 174.8,458.3 170.5,446 "/>
<path class="st0" d="M172.9,466.6c-2.1,20.8,13,39.3,33.7,41.4c17.1,1.8,33.3-8.3,39.3-24.4l0.2-0.7"/>
<path class="st0" d="M248.1,474.5c2.2-20.8-12.9-39.3-33.6-41.5c-17.2-1.8-33.4,8.3-39.4,24.4l-0.2,0.6"/>
<polyline class="st0" points="234,487.2 246.2,482.7 250.5,495 "/>
<ellipse transform="matrix(0.9746 -0.2241 0.2241 0.9746 -100.0903 59.071)" class="st0" cx="210.2" cy="470.5" rx="20.2" ry="20.2"/>
<polyline class="st0" points="200.5,469.2 208.4,477.1 221.2,464.2 "/>
<ellipse transform="matrix(0.9746 -0.2241 0.2241 0.9746 -93.4676 117.4085)" class="st0" cx="470.5" cy="470.5" rx="17.1" ry="17.1"/>
<polyline class="st0" points="462.3,469.4 469,476.1 479.9,465.1 "/>
<path class="st0" d="M470.5,430.5c0,0-17.2,13.3-31.5,13.3v33.7c0,7,2.9,13.3,7.7,16.9c5,3.7,20,13.6,20.6,14l3.1,2.1l3.1-2.1
	c0.6-0.4,15.6-10.3,20.6-14c4.8-3.5,7.7-9.9,7.7-16.9v-33.8C487.7,443.8,470.5,430.5,470.5,430.5z"/>
<path class="st0" d="M577.3,200.1h46.4c4.8,0,8.6,3.9,8.6,8.6v32.1c0,4.8-3.9,8.6-8.6,8.6h-46.4c-4.8,0-8.6-3.9-8.6-8.6v-32.1
	C568.7,204,572.5,200.1,577.3,200.1z"/>
<path class="st0" d="M612.5,200.1v-10.8c0.5-6.6-4.4-12.4-11-12.9c-6.6-0.5-12.4,4.4-12.9,11c-0.1,0.7-0.1,1.3,0,2v10.8"/>
<path class="st0" d="M580.6,200.1v-10.8c0-11,8.9-19.9,19.9-19.9s19.9,8.9,19.9,19.9v10.8"/>
<ellipse transform="matrix(0.9746 -0.2241 0.2241 0.9746 -35.101 140.2913)" class="st0" cx="600.5" cy="224.8" rx="17.2" ry="17.1"/>
<polyline class="st0" points="592.3,223.7 599,230.4 609.9,219.4 "/>
<polyline class="st0" points="618.8,380.5 618.8,336.9 625.1,336.9 625.1,380.5 "/>
<polyline class="st0" points="606.5,380.5 606.5,348.9 612.8,348.9 612.8,380.5 "/>
<polyline class="st0" points="637.4,380.5 637.4,325.6 631.1,325.6 631.1,380.5 "/>
<polyline class="st0" points="606.2,339.6 632,313.8 637.3,319.1 637.4,300.5 618.8,300.6 624.1,305.9 596.8,333.3 "/>
<polyline class="st0" points="572.6,354.6 579.4,361.5 590.6,350.3 "/>
<path class="st0" d="M581,331.1c0,0-10.6,8.2-19.5,8.2v20.9c-0.1,4,1.6,7.9,4.7,10.4c3.1,2.3,12.4,8.4,12.8,8.7l1.9,1.3l1.9-1.3
	c0.4-0.3,9.7-6.4,12.8-8.7c3.2-2.5,4.9-6.4,4.8-10.4v-20.8C591.6,339.3,581,331.1,581,331.1z"/>
<circle class="st0" cx="600.5" cy="103.3" r="7.2"/>
<path class="st0" d="M589.4,120.5c1.3-3.3,4.4-5.4,7.9-5.4h6.4c3.5,0,6.6,2.2,7.9,5.4"/>
<circle class="st0" cx="575.3" cy="96.1" r="7.2"/>
<path class="st0" d="M564.2,113.3c1.3-3.3,4.4-5.4,7.9-5.4h6.4c3.5,0,6.6,2.2,7.9,5.4"/>
<circle class="st0" cx="625.7" cy="96.7" r="7.2"/>
<path class="st0" d="M614.6,113.9c1.3-3.3,4.4-5.4,7.9-5.4h6.4c3.5,0,6.6,2.2,7.9,5.4"/>
<polyline class="st0" points="592,64.1 598.9,70.9 610.1,59.7 "/>
<path class="st0" d="M600.5,40.5c0,0-10.6,8.2-19.5,8.2v20.8c-0.1,4,1.6,7.9,4.8,10.4c3.1,2.3,12.4,8.4,12.8,8.7l1.9,1.3l1.9-1.3
	c0.4-0.3,9.7-6.4,12.8-8.7c3.1-2.5,4.9-6.4,4.7-10.4V48.7C611.1,48.7,600.5,40.5,600.5,40.5z"/>
<path class="st0" d="M584.8,490.3h-4.1c-0.6,0-1.1,0.5-1.1,1.1v5.4"/>
<line class="st0" x1="576" y1="471" x2="566.4" y2="471"/>
<circle class="st0" cx="579.7" cy="499.7" r="3"/>
<path class="st0" d="M578,481.1h-2.2c-0.6,0-1.1,0.5-1.1,1.1v2.5c0,0.6-0.5,1.1-1.1,1.1h-3.8"/>
<circle class="st0" cx="566.9" cy="485.7" r="3"/>
<path class="st0" d="M583.4,452h-3.2c-0.6,0-1.1-0.5-1.1-1.1v-4.4"/>
<circle class="st0" cx="563.5" cy="471" r="3"/>
<circle class="st0" cx="579.2" cy="443.5" r="3"/>
<path class="st0" d="M578,461.2h-2.2c-0.6,0-1.1-0.5-1.1-1.1v-2.5c0-0.6-0.5-1.1-1.1-1.1h-3.8"/>
<circle class="st0" cx="566.9" cy="456.6" r="3"/>
<path class="st0" d="M617.1,452h3.2c0.6,0,1.1-0.5,1.1-1.1v-4.4"/>
<line class="st0" x1="625" y1="471.3" x2="634.6" y2="471.3"/>
<circle class="st0" cx="621.3" cy="443.5" r="3"/>
<path class="st0" d="M623,461.2h2.2c0.6,0,1.1-0.5,1.1-1.1v-2.5c0-0.6,0.5-1.1,1.1-1.1h3.8"/>
<circle class="st0" cx="634.1" cy="456.6" r="3"/>
<path class="st0" d="M616.2,490.3h4.1c0.6,0,1.1,0.5,1.1,1.1v5.4"/>
<circle class="st0" cx="637.5" cy="471.3" r="3"/>
<circle class="st0" cx="621.3" cy="499.7" r="3"/>
<path class="st0" d="M623,481.1h2.2c0.6,0,1.1,0.5,1.1,1.1v2.5c0,0.6,0.5,1.1,1.1,1.1h3.8"/>
<circle class="st0" cx="634.1" cy="485.7" r="3"/>
<path class="st0" d="M587.3,457.7h26.4c2.7,0,4.9,2.2,4.9,4.9v18.3c0,2.7-2.2,4.9-4.9,4.9h-26.4c-2.7,0-4.9-2.2-4.9-4.9v-18.3
	C582.4,459.9,584.6,457.7,587.3,457.7z"/>
<path class="st0" d="M607.3,457.7v-6.1c0-3.8-3-6.8-6.8-6.8c-3.8,0-6.8,3-6.8,6.8c0,0,0,0,0,0v6.1"/>
<path class="st0" d="M589.2,457.7v-6.1c0-6.2,5.1-11.3,11.3-11.3c6.2,0,11.3,5.1,11.3,11.3v6.1"/>
<path class="st0" d="M600.2,478.4c-0.9,0-1.7-0.8-1.7-1.7v-4c0-0.1-0.1-0.3-0.2-0.3c-1.6-1.1-2.2-3.1-1.4-4.9
	c0.5-1.1,1.5-1.9,2.7-2.2c2.1-0.5,4.2,0.9,4.7,3c0.4,1.6-0.3,3.3-1.7,4.2c-0.1,0.1-0.2,0.2-0.2,0.3v4c0,0.9-0.8,1.7-1.7,1.7H600.2z"
	/>
</svg>
